<svg version="1.1" id="Layer_1" xmlns="http://www.w3.org/2000/svg" xmlns:xlink="http://www.w3.org/1999/xlink" x="0px" y="0px"
	 width="100%" viewBox="0 0 250 250" enable-background="new 0 0 250 250" xml:space="preserve">
<path fill="#010101" opacity="1.000000" stroke="none" 
	d="
M153.000000,251.000000 
	C102.000000,251.000000 51.500008,251.000000 1.000007,251.000000 
	C1.000005,167.666672 1.000005,84.333351 1.000002,1.000018 
	C84.333321,1.000012 167.666641,1.000012 250.999969,1.000006 
	C250.999969,84.333313 250.999969,167.666626 250.999985,250.999969 
	C218.500000,251.000000 186.000000,251.000000 153.000000,251.000000 
M174.554337,73.898300 
	C174.838913,73.353668 175.123474,72.809029 175.879715,71.803299 
	C186.469803,60.560486 197.059891,49.317669 208.966644,36.677029 
	C204.189392,36.492161 200.593201,36.352993 196.356216,35.989250 
	C195.951782,36.342361 195.547333,36.695473 194.606705,37.471657 
	C193.136749,38.790901 191.525253,39.984329 190.221359,41.451187 
	C184.586411,47.790363 179.106277,54.267639 173.446136,60.583832 
	C167.415924,67.312988 161.246399,73.917290 154.518936,80.544487 
	C153.751236,81.718765 152.983521,82.893051 151.660156,84.450829 
	C148.135345,88.066864 144.610535,91.682899 140.138916,95.282814 
	C134.771393,95.557877 129.403870,95.832932 123.095016,96.075264 
	C110.115112,96.117805 97.128288,96.421677 84.158630,96.077705 
	C78.769142,95.934769 74.650558,97.055878 71.380409,102.115540 
	C71.057655,102.781845 70.734894,103.448158 70.412140,104.114479 
	C70.953033,104.262505 71.493927,104.410530 72.949020,104.752808 
	C95.014870,104.693367 117.080711,104.633926 139.158798,105.305046 
	C139.203949,105.544388 139.249084,105.783722 138.883835,106.695602 
	C137.593811,107.549744 136.169083,109.278038 135.037552,109.103661 
	C130.612610,108.421776 127.996246,110.767868 125.410278,113.659515 
	C124.936798,114.188950 123.872978,114.190453 122.423332,113.800873 
	C122.907196,112.473503 123.391060,111.146141 124.109016,109.176605 
	C118.404861,109.176605 113.263641,108.941910 108.162979,109.294342 
	C106.176392,109.431595 103.783646,110.413170 102.424370,111.826302 
	C92.901886,121.726036 83.610046,131.847397 74.225304,141.879974 
	C70.846596,145.491898 65.465485,148.406174 69.981331,154.640289 
	C70.015099,154.686920 69.811867,154.905212 68.782951,154.400909 
	C66.052299,150.997803 62.529316,150.033081 58.222076,150.270309 
	C49.464851,150.752625 40.653934,151.404343 31.925922,150.911011 
	C24.930874,150.515594 21.696960,154.488892 17.534042,159.957504 
	C23.537235,159.957504 28.544252,159.962906 33.551254,159.956406 
	C45.338203,159.941116 57.125275,159.886810 68.911980,159.931000 
	C71.136070,159.939331 73.207565,160.121994 73.737274,156.866547 
	C76.035736,159.564331 78.889252,159.786331 82.212852,159.728485 
	C80.485474,160.630737 78.758095,161.533005 76.290352,162.219696 
	C74.874321,162.521851 73.458290,162.823990 71.100571,163.082703 
	C53.464188,163.137268 35.827618,163.165253 18.191719,163.288696 
	C16.482643,163.300659 14.777700,163.903290 12.368739,164.206009 
	C10.755604,166.123703 9.142469,168.041397 7.183034,170.366562 
	C7.207655,170.543121 7.232276,170.719666 7.071404,171.415741 
	C7.725542,171.796310 8.379680,172.176880 9.949134,172.745529 
	C18.290094,172.698486 26.631056,172.651443 35.884212,172.849472 
	C45.362606,172.871475 54.841316,172.938309 64.319069,172.870758 
	C65.873367,172.859680 67.423462,172.257339 69.842819,171.988525 
	C71.871155,171.988525 73.899483,171.988525 77.032906,171.988525 
	C74.484756,174.862625 72.814400,176.746658 70.522766,178.560638 
	C69.459244,180.049225 68.395721,181.537811 67.220818,183.832382 
	C67.737587,184.164505 68.255745,184.787796 68.770912,184.785324 
	C77.168777,184.745056 85.566269,184.625610 94.518036,184.485016 
	C94.326958,183.705841 94.135872,182.926666 93.972328,181.509247 
	C93.872604,181.321091 93.772888,181.132950 94.438057,180.651123 
	C94.982346,180.690735 95.526627,180.730347 96.456177,181.338837 
	C101.209465,186.077179 101.209465,186.077179 105.476601,181.353302 
	C106.580620,179.880096 107.684639,178.406876 109.348671,176.555908 
	C112.187706,173.513321 115.026741,170.470734 118.490433,167.378387 
	C119.926010,165.564240 121.361580,163.750092 123.353462,161.554382 
	C126.524536,158.179840 129.695618,154.805298 133.474182,151.357956 
	C133.631302,150.112061 133.788422,148.866165 133.078171,147.265045 
	C124.025810,147.266525 114.973442,147.268021 105.667053,146.604385 
	C105.646210,146.367981 105.625359,146.131592 106.316849,145.570679 
	C108.626251,144.649750 110.924965,142.959900 113.246712,142.927673 
	C134.817886,142.628067 156.393021,142.613754 178.522720,142.729660 
	C178.992111,142.414825 179.461502,142.099991 180.577774,141.773621 
	C181.355209,141.077133 182.132645,140.380630 183.572388,139.762833 
	C184.068451,139.183258 184.564514,138.603699 185.549011,137.897690 
	C185.705612,137.614334 185.862228,137.330978 186.684967,136.947205 
	C187.051956,136.275803 187.418945,135.604401 188.367218,134.574158 
	C193.254852,129.407639 198.142487,124.241119 203.691864,118.958466 
	C204.061722,118.284676 204.431580,117.610878 205.374786,116.573746 
	C210.591354,111.069595 215.807922,105.565445 221.680267,99.952789 
	C222.047363,99.279129 222.414444,98.605469 223.362823,97.581383 
	C228.916977,91.741943 234.471146,85.902504 240.703796,79.949951 
	C244.735367,76.209747 244.735367,76.209747 240.101227,74.247093 
	C237.739517,74.237015 235.377808,74.226944 232.391434,73.989288 
	C231.764664,74.703583 231.137894,75.417877 229.870605,76.345695 
	C229.280365,77.012550 228.690109,77.679398 227.454132,78.288368 
	C226.702805,79.546677 225.951477,80.804985 224.645035,82.446198 
	C221.762787,85.629341 218.880554,88.812492 215.408310,92.199966 
	C215.011490,92.822510 214.614655,93.445045 213.660507,94.449074 
	C209.819382,98.489624 205.978241,102.530174 201.518051,106.543243 
	C200.750671,107.717949 199.983292,108.892654 198.659256,110.452034 
	C196.152481,113.163231 193.645721,115.874435 190.521103,118.546227 
	C189.752823,119.720009 188.984543,120.893784 187.654968,122.443283 
	C184.131927,126.062187 180.608887,129.681091 176.140381,133.282761 
	C171.105972,133.558670 166.071579,133.834579 160.095825,134.074326 
	C146.367004,134.141510 132.638184,134.208679 118.842049,133.494522 
	C118.816200,132.972336 118.790352,132.450150 119.422363,131.460464 
	C121.628075,130.937042 123.826469,130.000763 126.040756,129.961548 
	C135.701828,129.790482 145.367523,129.880020 155.583435,130.515030 
	C159.029068,130.608109 162.480270,130.610489 165.918671,130.821442 
	C168.960861,131.008072 171.796173,131.016724 173.365021,128.079041 
	C174.934998,127.430580 176.954895,127.200043 178.005417,126.069084 
	C188.642593,114.617142 199.136887,103.032135 209.637482,91.453835 
	C214.251480,86.366302 218.787827,81.208359 224.289932,75.039047 
	C219.761093,75.039047 216.816757,75.232506 213.908752,74.990044 
	C210.280457,74.687531 207.915390,76.001686 205.390717,78.764305 
	C192.840775,92.497002 179.949493,105.917519 167.239410,119.504997 
	C166.705658,120.075584 166.778519,121.213608 165.751511,122.349663 
	C165.485107,122.454010 165.218689,122.558350 164.115768,122.225914 
	C152.694702,122.292801 141.273636,122.359680 129.866348,121.695694 
	C129.878311,121.452324 129.890289,121.208946 130.591278,120.624435 
	C132.494690,119.671997 134.357666,118.010971 136.309067,117.899643 
	C142.221100,117.562355 148.170090,117.928116 154.098053,117.770363 
	C155.327606,117.737648 156.528564,116.629929 157.972061,115.302696 
	C158.350571,115.058174 158.729080,114.813652 159.371002,115.164566 
	C160.002686,115.756912 160.634354,116.349266 161.153351,117.447899 
	C161.429565,117.500938 161.705795,117.553978 162.679138,117.757179 
	C163.744034,116.998985 164.808945,116.240784 166.479706,115.394157 
	C167.248062,114.240387 168.016418,113.086617 169.340393,111.547302 
	C171.517715,109.189735 173.695038,106.832169 176.502350,104.453156 
	C177.597046,102.946495 178.691742,101.439842 180.343445,99.550430 
	C182.851746,96.855560 185.360046,94.160690 188.488449,91.460289 
	C189.254959,90.284714 190.021469,89.109138 191.349991,87.551476 
	C194.769058,83.898643 198.188141,80.245811 201.607208,76.592979 
	C201.255264,76.118324 200.903320,75.643677 200.551376,75.169022 
	C191.689880,75.169022 182.828384,75.169022 173.812637,74.549927 
	C173.828644,74.337845 173.844635,74.125771 173.926620,73.974815 
	C173.926620,73.974815 173.929581,73.884926 174.554337,73.898300 
M134.535370,88.161598 
	C136.050491,89.092422 137.565628,90.023239 139.271484,91.071236 
	C155.436081,73.328072 171.447342,55.753216 187.458618,38.178364 
	C182.722580,37.057735 178.775650,36.901966 174.853455,37.145123 
	C173.541519,37.226452 171.972504,38.028519 171.063141,39.005650 
	C157.501709,53.577541 144.031235,68.234108 130.656540,82.743546 
	C130.961578,84.145653 131.264236,85.536804 130.447815,86.136726 
	C128.510925,85.471512 126.575317,84.240044 124.636932,84.235664 
	C114.328613,84.212372 104.015961,84.733002 93.712334,84.575020 
	C88.535271,84.495628 85.365013,86.581345 82.999153,91.602936 
	C100.565651,91.602936 117.747795,91.602936 135.203537,91.602936 
	C134.660309,90.743797 134.080490,89.826813 134.535370,88.161598 
M45.645351,132.598755 
	C45.016815,132.464264 44.062126,131.996429 43.808243,132.244827 
	C39.379807,136.577713 35.037258,140.998413 29.652735,146.432709 
	C40.419411,146.432709 49.530090,146.432709 58.510857,146.432709 
	C54.256233,141.836349 50.121181,137.369171 46.440735,131.931763 
	C48.336491,133.092743 50.434784,134.020950 52.088673,135.459930 
	C56.434891,139.241394 60.587639,143.245209 65.077362,147.401016 
	C76.711212,134.949402 87.925972,122.946335 99.997192,110.026604 
	C87.718689,110.026604 76.822098,110.017395 65.925644,110.051163 
	C65.319138,110.053040 64.492462,110.220413 64.140663,110.630341 
	C57.897282,117.905602 48.954559,123.043144 45.645351,132.598755 
M116.854698,71.227936 
	C120.341469,74.190750 123.828239,77.153572 127.352219,80.148010 
	C140.269608,65.953400 152.787033,52.198296 165.304459,38.443192 
	C154.490753,37.261299 144.409134,37.237698 134.328232,37.311760 
	C133.618271,37.316975 132.762650,37.898415 132.229156,38.455532 
	C124.442833,46.586739 116.699883,54.759476 108.983246,62.883720 
	C111.067574,65.267128 112.809532,67.259033 113.259956,69.405273 
	C111.219078,68.016090 109.178200,66.626907 106.798431,65.007057 
	C102.633850,69.543938 98.439072,74.113716 93.650749,79.330101 
	C103.601196,79.330101 112.667755,79.330101 122.193527,79.330101 
	C119.730347,76.411049 117.730637,74.041237 116.854698,71.227936 
M151.060654,161.692459 
	C149.855606,163.238678 148.756119,164.882706 147.428528,166.315353 
	C138.244370,176.226334 129.096649,186.174194 119.722878,195.903671 
	C117.927368,197.767334 115.290497,199.621658 112.854004,199.913712 
	C106.001335,200.735138 99.053032,200.945786 92.138275,201.022675 
	C78.475586,201.174606 64.810059,201.059769 51.145767,201.086670 
	C46.785500,201.095261 42.081936,206.349899 42.621380,211.018555 
	C66.380272,211.018555 90.193130,211.120956 114.002014,210.860550 
	C116.389687,210.834427 119.286018,209.124207 121.038261,207.315765 
	C129.874222,198.196365 138.345078,188.724762 147.067703,179.493561 
	C155.719467,170.337372 164.561768,161.361053 173.197495,152.190033 
	C174.267395,151.053833 174.582169,149.206558 175.252502,147.675842 
	C168.506165,145.882980 164.080032,147.490570 160.398056,152.259750 
	C157.989426,155.379608 154.731186,157.843536 151.173615,159.699402 
	C154.036316,156.009949 156.899017,152.320511 160.231674,148.025391 
	C153.559235,148.025391 147.658630,147.948914 141.763916,148.100555 
	C140.779343,148.125885 139.617645,148.950424 138.879791,149.729538 
	C127.690239,161.544540 116.519295,173.378204 105.500130,185.351166 
	C104.779121,186.134583 104.707718,188.629745 105.386276,189.391617 
	C108.104866,192.444016 111.238594,195.126678 114.247330,197.973053 
	C125.221458,186.190338 135.801605,174.736359 146.539597,163.432312 
	C147.749664,162.158463 149.851059,161.731339 151.060654,161.692459 
M71.650841,197.952576 
	C84.002945,197.952576 96.355049,197.952576 108.707153,197.952576 
	C108.811523,197.459915 108.915886,196.967255 109.020256,196.474594 
	C104.544395,193.035843 101.944679,187.421097 94.108353,188.449936 
	C85.305832,189.605621 76.238777,189.434998 67.338112,188.932526 
	C60.452854,188.543839 57.651314,192.868546 53.468193,197.954224 
	C59.948391,197.954224 65.320389,197.954224 71.650841,197.952576 
z"/>
<path fill="#FDFDFD" opacity="1.000000" stroke="none" 
	d="
M177.085846,133.299988 
	C180.608887,129.681091 184.131927,126.062187 188.251678,122.217239 
	C189.611923,120.856018 190.375443,119.720825 191.138962,118.585640 
	C193.645721,115.874435 196.152481,113.163231 199.254333,110.220963 
	C200.611984,108.850159 201.374542,107.710442 202.137115,106.570724 
	C205.978241,102.530174 209.819382,98.489624 214.246933,94.207474 
	C215.221680,93.309120 215.610001,92.652382 215.998322,91.995636 
	C218.880554,88.812492 221.762787,85.629341 225.251282,82.213142 
	C226.604965,80.768806 227.352417,79.557526 228.099869,78.346245 
	C228.690109,77.679398 229.280365,77.012550 230.494202,76.226379 
	C231.750549,75.476997 232.383331,74.846931 233.016098,74.216873 
	C235.377808,74.226944 237.739517,74.237015 240.527069,74.703094 
	C240.643692,76.793755 240.334503,78.428406 240.025299,80.063065 
	C234.471146,85.902504 228.916977,91.741943 222.760437,97.807732 
	C221.780182,98.709816 221.402344,99.385559 221.024506,100.061295 
	C215.807922,105.565445 210.591354,111.069595 204.774048,116.806335 
	C203.792252,117.717476 203.411179,118.396034 203.030121,119.074585 
	C198.142487,124.241119 193.254852,129.407639 187.765656,134.804672 
	C186.782349,135.705994 186.400589,136.376816 186.018829,137.047623 
	C185.862228,137.330978 185.705612,137.614334 184.997101,137.973480 
	C183.933502,138.594223 183.421783,139.139175 182.910080,139.684143 
	C182.132645,140.380630 181.355209,141.077133 180.106354,141.578369 
	C179.078964,141.760986 178.522995,142.138840 177.967010,142.516693 
	C156.393021,142.613754 134.817886,142.628067 113.246712,142.927673 
	C110.924965,142.959900 108.626251,144.649750 105.689049,145.786957 
	C104.835213,146.493759 104.609177,146.984283 104.383133,147.474808 
	C104.895782,147.406372 105.408432,147.337936 105.921082,147.269501 
	C114.973442,147.268021 124.025810,147.266525 133.446564,147.719360 
	C133.498856,149.259354 133.182770,150.345062 132.866699,151.430756 
	C129.695618,154.805298 126.524536,158.179840 122.744904,161.785278 
	C120.712814,163.820145 119.289291,165.624146 117.865768,167.428131 
	C115.026741,170.470734 112.187706,173.513321 108.744644,176.784088 
	C107.047577,178.470093 105.954529,179.927933 104.861481,181.385757 
	C101.209465,186.077179 101.209465,186.077179 96.227455,180.743088 
	C95.329193,179.100555 94.659653,178.053772 94.371567,177.010315 
	C99.394257,180.085297 102.761574,178.482895 106.093033,174.528397 
	C110.542274,169.247055 115.485451,164.383438 120.176552,159.303543 
	C122.592697,156.687164 124.922302,153.990875 127.367836,151.244415 
	C126.205864,150.486572 125.936325,150.158508 125.661934,150.154404 
	C120.679482,150.079712 115.683495,150.250031 110.717453,149.937744 
	C106.398697,149.666138 103.472672,151.646027 100.854179,154.682007 
	C98.153770,157.812958 95.537849,161.058578 92.522621,163.864685 
	C89.386215,166.783600 87.674271,169.221909 91.928726,172.623535 
	C93.061699,173.529404 93.328781,175.518250 93.612671,176.993988 
	C90.574295,175.438644 87.916672,173.899185 85.259041,172.359741 
	C86.715973,176.770126 89.374329,179.726135 93.673172,180.944794 
	C93.772888,181.132950 93.872604,181.321091 93.937195,182.125153 
	C93.922661,183.335388 93.943253,183.929703 93.963844,184.524017 
	C85.566269,184.625610 77.168777,184.745056 68.770912,184.785324 
	C68.255745,184.787796 67.737587,184.164505 67.591324,183.390686 
	C69.022560,181.509537 70.083298,180.070114 71.144035,178.630676 
	C72.814400,176.746658 74.484756,174.862625 77.032906,171.988525 
	C73.899483,171.988525 71.871155,171.988525 69.111916,171.668167 
	C57.973774,171.239899 47.566555,171.099899 37.159248,171.093048 
	C36.430504,171.092560 35.701111,172.077621 34.972015,172.604385 
	C26.631056,172.651443 18.290094,172.698486 9.406359,172.329834 
	C8.328022,171.574814 7.792459,171.235519 7.256897,170.896210 
	C7.232276,170.719666 7.207655,170.543121 7.710671,170.100891 
	C9.849152,167.967407 11.459996,166.099564 13.070840,164.231750 
	C14.777700,163.903290 16.482643,163.300659 18.191719,163.288696 
	C35.827618,163.165253 53.464188,163.137268 71.798729,163.357147 
	C74.008163,163.232819 75.519440,162.834045 77.030716,162.435272 
	C78.758095,161.533005 80.485474,160.630737 82.091583,159.214508 
	C81.970306,158.700531 82.048218,158.543610 82.391769,158.769470 
	C84.558563,157.349060 86.381813,155.702820 88.547104,154.011902 
	C93.626625,150.444870 93.774185,150.025604 91.341599,147.535431 
	C92.526337,146.268204 93.471916,145.144028 94.628174,144.478806 
	C97.627380,142.643982 100.415909,140.350204 103.539261,138.014633 
	C106.293633,135.901947 110.469200,134.723969 108.113525,129.972443 
	C108.919235,129.406128 109.486832,128.971191 110.403656,128.762115 
	C113.568497,126.346207 116.384125,123.704430 119.532394,121.020950 
	C122.168327,119.383415 125.243019,118.152679 123.003113,114.413269 
	C123.025459,114.430496 123.081665,114.435654 123.081665,114.435654 
	C123.872978,114.190453 124.936798,114.188950 125.410278,113.659515 
	C127.996246,110.767868 130.612610,108.421776 135.037552,109.103661 
	C136.169083,109.278038 137.593811,107.549744 139.385696,106.348999 
	C140.442917,105.511551 140.998276,105.020691 141.553635,104.529839 
	C141.413696,104.324127 141.273758,104.118423 141.133820,103.912712 
	C140.471405,104.133308 139.808975,104.353897 139.146561,104.574478 
	C117.080711,104.633926 95.014870,104.693367 72.501144,104.322113 
	C72.020256,103.224915 71.987251,102.558426 71.954247,101.891930 
	C74.650558,97.055878 78.769142,95.934769 84.158630,96.077705 
	C97.128288,96.421677 110.115112,96.117805 123.867226,96.373489 
	C129.084091,96.782417 133.530777,97.003479 137.971939,96.922516 
	C139.019379,96.903412 140.048279,95.867226 141.085709,95.298927 
	C144.610535,91.682899 148.135345,88.066864 152.254486,84.220558 
	C153.611771,82.852226 154.374741,81.714165 155.137695,80.576111 
	C161.246399,73.917290 167.415924,67.312988 173.446136,60.583832 
	C179.106277,54.267639 184.586411,47.790363 190.221359,41.451187 
	C191.525253,39.984329 193.136749,38.790901 195.142059,37.248421 
	C196.117264,36.754734 196.557129,36.484280 196.997009,36.213829 
	C200.593201,36.352993 204.189392,36.492161 208.966644,36.677029 
	C197.059891,49.317669 186.469803,60.560486 175.293152,71.935638 
	C174.447586,72.673630 174.188583,73.279274 173.929565,73.884918 
	C173.929581,73.884926 173.926620,73.974815 173.592361,73.917603 
	C173.006500,74.439987 172.754898,75.019569 172.503296,75.599152 
	C172.991165,75.455772 173.479019,75.312393 173.966888,75.169022 
	C182.828384,75.169022 191.689880,75.169022 200.551376,75.169022 
	C200.903320,75.643677 201.255264,76.118324 201.607208,76.592979 
	C198.188141,80.245811 194.769058,83.898643 190.750336,87.781845 
	C189.389893,89.163422 188.629120,90.314621 187.868347,91.465813 
	C185.360046,94.160690 182.851746,96.855560 179.738312,99.781525 
	C178.046234,101.499954 176.959290,102.987282 175.872360,104.474609 
	C173.695038,106.832169 171.517715,109.189735 168.742798,111.778122 
	C167.388077,113.166832 166.630966,114.324715 165.873840,115.482590 
	C164.808945,116.240784 163.744034,116.998985 162.268692,117.520081 
	C161.701416,117.098808 161.504013,116.985016 161.266037,116.941620 
	C160.634354,116.349266 160.002686,115.756912 159.180115,114.543892 
	C158.030487,112.311363 157.071732,110.699516 156.112961,109.087662 
	C155.475784,109.655151 154.838593,110.222633 154.201401,110.790123 
	C153.572723,113.526375 154.736557,115.278000 157.742691,116.017654 
	C156.528564,116.629929 155.327606,117.737648 154.098053,117.770363 
	C148.170090,117.928116 142.221100,117.562355 136.309067,117.899643 
	C134.357666,118.010971 132.494690,119.671997 129.939529,120.802795 
	C128.672867,121.447044 128.057953,121.912933 127.443039,122.378815 
	C127.574257,122.603409 127.705482,122.827995 127.836708,123.052589 
	C128.508667,122.843910 129.180618,122.635239 129.852570,122.426567 
	C141.273636,122.359680 152.694702,122.292801 164.590714,122.755859 
	C166.320374,124.862762 167.575104,126.439735 169.159622,128.431198 
	C163.938370,128.964752 159.484955,129.419846 155.031540,129.874939 
	C145.367523,129.880020 135.701828,129.790482 126.040756,129.961548 
	C123.826469,130.000763 121.628075,130.937042 118.772224,131.737961 
	C117.560722,132.826492 116.999359,133.637543 116.437988,134.448593 
	C117.261787,134.391022 118.085579,134.333450 118.909370,134.275848 
	C132.638184,134.208679 146.367004,134.141510 160.868103,134.373535 
	C165.091522,134.784485 168.552673,135.096024 171.989578,134.923782 
	C173.711136,134.837509 175.388489,133.869308 177.085846,133.299988 
M154.474380,99.019882 
	C151.642929,101.241959 151.379776,103.421776 154.318420,105.876518 
	C156.220764,107.465622 157.944763,109.291954 159.605240,111.140800 
	C161.617889,113.381767 163.485947,113.421738 165.385208,111.105209 
	C167.347580,108.711731 169.147842,106.170082 171.254440,103.912994 
	C177.342697,97.389839 183.582916,91.008530 189.673965,84.487907 
	C190.602936,83.493401 191.056610,82.054909 192.144974,80.062187 
	C185.137589,80.062187 178.896439,80.027344 172.656815,80.108597 
	C171.920410,80.118187 170.995621,80.586212 170.490692,81.143181 
	C165.278275,86.892929 160.134293,92.704727 154.474380,99.019882 
M123.682602,140.000000 
	C139.666229,139.940323 137.424240,140.473709 139.766403,136.981415 
	C132.005295,137.367111 124.665451,136.175888 117.516098,137.747772 
	C117.544617,138.498520 117.573128,139.249252 117.601646,140.000000 
	C119.319328,140.000000 121.037010,140.000000 123.682602,140.000000 
M80.452637,180.307663 
	C82.190788,180.469772 83.928932,180.631897 86.173569,180.841248 
	C83.819489,176.046158 82.700951,175.985748 80.452637,180.307663 
M84.412506,169.485748 
	C84.412506,169.485748 84.523193,169.419250 84.412506,169.485748 
z"/>
<path fill="#F3F3F3" opacity="1.000000" stroke="none" 
	d="
M151.853485,160.601257 
	C154.731186,157.843536 157.989426,155.379608 160.398056,152.259750 
	C164.080032,147.490570 168.506165,145.882980 175.252502,147.675842 
	C174.582169,149.206558 174.267395,151.053833 173.197495,152.190033 
	C164.561768,161.361053 155.719467,170.337372 147.067703,179.493561 
	C138.345078,188.724762 129.874222,198.196365 121.038261,207.315765 
	C119.286018,209.124207 116.389687,210.834427 114.002014,210.860550 
	C90.193130,211.120956 66.380272,211.018555 42.621380,211.018555 
	C42.081936,206.349899 46.785500,201.095261 51.145767,201.086670 
	C64.810059,201.059769 78.475586,201.174606 92.138275,201.022675 
	C99.053032,200.945786 106.001335,200.735138 112.854004,199.913712 
	C115.290497,199.621658 117.927368,197.767334 119.722878,195.903671 
	C129.096649,186.174194 138.244370,176.226334 147.428528,166.315353 
	C148.756119,164.882706 149.855606,163.238678 151.241852,161.306671 
	C151.680222,160.738647 151.823715,160.632095 151.853485,160.601257 
z"/>
<path fill="#F6F6F6" opacity="1.000000" stroke="none" 
	d="
M114.551498,69.250946 
	C112.809532,67.259033 111.067574,65.267128 108.983246,62.883720 
	C116.699883,54.759476 124.442833,46.586739 132.229156,38.455532 
	C132.762650,37.898415 133.618271,37.316975 134.328232,37.311760 
	C144.409134,37.237698 154.490753,37.261299 165.304459,38.443192 
	C152.787033,52.198296 140.269608,65.953400 127.352219,80.148010 
	C123.828239,77.153572 120.341469,74.190750 116.316544,71.472710 
	C115.369415,70.895302 114.960457,70.073128 114.551498,69.250946 
z"/>
<path fill="#F2F2F2" opacity="1.000000" stroke="none" 
	d="
M94.417496,144.019852 
	C93.471916,145.144028 92.526337,146.268204 91.072662,147.673889 
	C89.708038,148.777206 88.851509,149.599014 87.650650,150.553864 
	C85.553619,153.305817 83.800911,155.924713 82.048218,158.543610 
	C82.048218,158.543610 81.970306,158.700531 82.000305,158.713135 
	C78.889252,159.786331 76.035736,159.564331 73.369125,156.950104 
	C73.000969,157.033661 73.082306,157.014603 72.977097,156.492737 
	C72.052391,155.981735 71.232880,155.992615 70.373238,155.879623 
	C70.128502,155.518295 69.923904,155.280823 69.719299,155.043365 
	C69.811867,154.905212 70.015099,154.686920 69.981331,154.640289 
	C65.465485,148.406174 70.846596,145.491898 74.225304,141.879974 
	C83.610046,131.847397 92.901886,121.726036 102.424370,111.826302 
	C103.783646,110.413170 106.176392,109.431595 108.162979,109.294342 
	C113.263641,108.941910 118.404861,109.176605 124.109016,109.176605 
	C123.391060,111.146141 122.907196,112.473503 122.752502,114.118263 
	C123.081665,114.435654 123.025459,114.430496 122.785645,114.364563 
	C121.990341,114.667168 121.434845,115.035698 120.420929,115.677101 
	C117.203552,118.734856 114.325508,121.415489 111.748558,124.359665 
	C110.813637,125.427826 110.598175,127.125717 110.054436,128.536270 
	C109.486832,128.971191 108.919235,129.406128 107.813675,130.062531 
	C105.848854,131.663269 104.421982,133.042511 102.655922,134.546051 
	C99.683655,137.786850 97.050583,140.903351 94.417496,144.019852 
z"/>
<path fill="#F8F8F8" opacity="1.000000" stroke="none" 
	d="
M46.241867,133.122345 
	C48.954559,123.043144 57.897282,117.905602 64.140663,110.630341 
	C64.492462,110.220413 65.319138,110.053040 65.925644,110.051163 
	C76.822098,110.017395 87.718689,110.026604 99.997192,110.026604 
	C87.925972,122.946335 76.711212,134.949402 65.077362,147.401016 
	C60.587639,143.245209 56.434891,139.241394 52.088673,135.459930 
	C50.434784,134.020950 48.336491,133.092743 46.265186,132.442657 
	C46.089638,132.953552 46.241867,133.122345 46.241867,133.122345 
z"/>
<path fill="#F5F5F5" opacity="1.000000" stroke="none" 
	d="
M151.513550,160.150330 
	C151.823715,160.632095 151.680222,160.738647 151.481079,160.916229 
	C149.851059,161.731339 147.749664,162.158463 146.539597,163.432312 
	C135.801605,174.736359 125.221458,186.190338 114.247330,197.973053 
	C111.238594,195.126678 108.104866,192.444016 105.386276,189.391617 
	C104.707718,188.629745 104.779121,186.134583 105.500130,185.351166 
	C116.519295,173.378204 127.690239,161.544540 138.879791,149.729538 
	C139.617645,148.950424 140.779343,148.125885 141.763916,148.100555 
	C147.658630,147.948914 153.559235,148.025391 160.231674,148.025391 
	C156.899017,152.320511 154.036316,156.009949 151.513550,160.150330 
z"/>
<path fill="#F2F2F2" opacity="1.000000" stroke="none" 
	d="
M131.566895,86.927956 
	C131.264236,85.536804 130.961578,84.145653 130.656540,82.743546 
	C144.031235,68.234108 157.501709,53.577541 171.063141,39.005650 
	C171.972504,38.028519 173.541519,37.226452 174.853455,37.145123 
	C178.775650,36.901966 182.722580,37.057735 187.458618,38.178364 
	C171.447342,55.753216 155.436081,73.328072 139.271484,91.071236 
	C137.565628,90.023239 136.050491,89.092422 134.064270,88.577179 
	C132.917740,88.304497 132.242325,87.616226 131.566895,86.927956 
z"/>
<path fill="#F2F2F2" opacity="1.000000" stroke="none" 
	d="
M166.568787,122.087273 
	C166.778519,121.213608 166.705658,120.075584 167.239410,119.504997 
	C179.949493,105.917519 192.840775,92.497002 205.390717,78.764305 
	C207.915390,76.001686 210.280457,74.687531 213.908752,74.990044 
	C216.816757,75.232506 219.761093,75.039047 224.289932,75.039047 
	C218.787827,81.208359 214.251480,86.366302 209.637482,91.453835 
	C199.136887,103.032135 188.642593,114.617142 178.005417,126.069084 
	C176.954895,127.200043 174.934998,127.430580 173.126053,127.466080 
	C170.780975,125.264503 168.674881,123.675888 166.568787,122.087273 
z"/>
<path fill="#ECECEC" opacity="1.000000" stroke="none" 
	d="
M69.251129,154.722137 
	C69.923904,155.280823 70.128502,155.518295 70.674088,156.178802 
	C71.704155,156.739456 72.393234,156.877029 73.082306,157.014603 
	C73.082306,157.014603 73.000969,157.033661 72.989616,156.993591 
	C73.207565,160.121994 71.136070,159.939331 68.911980,159.931000 
	C57.125275,159.886810 45.338203,159.941116 33.551254,159.956406 
	C28.544252,159.962906 23.537235,159.957504 17.534042,159.957504 
	C21.696960,154.488892 24.930874,150.515594 31.925922,150.911011 
	C40.653934,151.404343 49.464851,150.752625 58.222076,150.270309 
	C62.529316,150.033081 66.052299,150.997803 69.251129,154.722137 
z"/>
<path fill="#ECECEC" opacity="1.000000" stroke="none" 
	d="
M71.171616,197.953400 
	C65.320389,197.954224 59.948391,197.954224 53.468193,197.954224 
	C57.651314,192.868546 60.452854,188.543839 67.338112,188.932526 
	C76.238777,189.434998 85.305832,189.605621 94.108353,188.449936 
	C101.944679,187.421097 104.544395,193.035843 109.020256,196.474594 
	C108.915886,196.967255 108.811523,197.459915 108.707153,197.952576 
	C96.355049,197.952576 84.002945,197.952576 71.171616,197.953400 
z"/>
<path fill="#EFEFEF" opacity="1.000000" stroke="none" 
	d="
M131.007355,86.532341 
	C132.242325,87.616226 132.917740,88.304497 133.546921,88.951294 
	C134.080490,89.826813 134.660309,90.743797 135.203537,91.602936 
	C117.747795,91.602936 100.565651,91.602936 82.999153,91.602936 
	C85.365013,86.581345 88.535271,84.495628 93.712334,84.575020 
	C104.015961,84.733002 114.328613,84.212372 124.636932,84.235664 
	C126.575317,84.240044 128.510925,85.471512 131.007355,86.532341 
z"/>
<path fill="#ECECEC" opacity="1.000000" stroke="none" 
	d="
M45.943611,132.860550 
	C46.241867,133.122345 46.089638,132.953552 46.037884,132.927765 
	C50.121181,137.369171 54.256233,141.836349 58.510857,146.432709 
	C49.530090,146.432709 40.419411,146.432709 29.652735,146.432709 
	C35.037258,140.998413 39.379807,136.577713 43.808243,132.244827 
	C44.062126,131.996429 45.016815,132.464264 45.943611,132.860550 
z"/>
<path fill="#EAEAEA" opacity="1.000000" stroke="none" 
	d="
M113.905731,69.328110 
	C114.960457,70.073128 115.369415,70.895302 115.754654,71.694458 
	C117.730637,74.041237 119.730347,76.411049 122.193527,79.330101 
	C112.667755,79.330101 103.601196,79.330101 93.650749,79.330101 
	C98.439072,74.113716 102.633850,69.543938 106.798431,65.007057 
	C109.178200,66.626907 111.219078,68.016090 113.905731,69.328110 
z"/>
<path fill="#EDEDED" opacity="1.000000" stroke="none" 
	d="
M35.428116,172.726929 
	C35.701111,172.077621 36.430504,171.092560 37.159248,171.093048 
	C47.566555,171.099899 57.973774,171.239899 68.678253,171.638031 
	C67.423462,172.257339 65.873367,172.859680 64.319069,172.870758 
	C54.841316,172.938309 45.362606,172.871475 35.428116,172.726929 
z"/>
<path fill="#EDEDED" opacity="1.000000" stroke="none" 
	d="
M166.160141,122.218468 
	C168.674881,123.675888 170.780975,125.264503 172.949951,127.158119 
	C171.796173,131.016724 168.960861,131.008072 165.918671,130.821442 
	C162.480270,130.610489 159.029068,130.608109 155.307495,130.194977 
	C159.484955,129.419846 163.938370,128.964752 169.159622,128.431198 
	C167.575104,126.439735 166.320374,124.862762 165.008972,122.974243 
	C165.218689,122.558350 165.485107,122.454010 166.160141,122.218468 
z"/>
<path fill="#EDEDED" opacity="1.000000" stroke="none" 
	d="
M93.990112,177.006973 
	C94.659653,178.053772 95.329193,179.100555 96.034821,180.458649 
	C95.526627,180.730347 94.982346,180.690735 94.055618,180.797958 
	C89.374329,179.726135 86.715973,176.770126 85.259041,172.359741 
	C87.916672,173.899185 90.574295,175.438644 93.615959,176.989044 
	C94.000000,177.000000 93.990120,177.006973 93.990112,177.006973 
z"/>
<path fill="#EDEDED" opacity="1.000000" stroke="none" 
	d="
M140.612305,95.290863 
	C140.048279,95.867226 139.019379,96.903412 137.971939,96.922516 
	C133.530777,97.003479 129.084091,96.782417 124.337891,96.389847 
	C129.403870,95.832932 134.771393,95.557877 140.612305,95.290863 
z"/>
<path fill="#EDEDED" opacity="1.000000" stroke="none" 
	d="
M176.613113,133.291382 
	C175.388489,133.869308 173.711136,134.837509 171.989578,134.923782 
	C168.552673,135.096024 165.091522,134.784485 161.338776,134.391632 
	C166.071579,133.834579 171.105972,133.558670 176.613113,133.291382 
z"/>
<path fill="#EDEDED" opacity="1.000000" stroke="none" 
	d="
M157.857376,115.660172 
	C154.736557,115.278000 153.572723,113.526375 154.201401,110.790123 
	C154.838593,110.222633 155.475784,109.655151 156.112961,109.087662 
	C157.071732,110.699516 158.030487,112.311363 159.048401,114.246178 
	C158.729080,114.813652 158.350571,115.058174 157.857376,115.660172 
z"/>
<path fill="#EDEDED" opacity="1.000000" stroke="none" 
	d="
M240.364548,80.006508 
	C240.334503,78.428406 240.643692,76.793755 240.959259,74.797768 
	C244.735367,76.209747 244.735367,76.209747 240.364548,80.006508 
z"/>
<path fill="#EDEDED" opacity="1.000000" stroke="none" 
	d="
M12.719790,164.218872 
	C11.459996,166.099564 9.849152,167.967407 7.883821,169.897156 
	C9.142469,168.041397 10.755604,166.123703 12.719790,164.218872 
z"/>
<path fill="#EDEDED" opacity="1.000000" stroke="none" 
	d="
M118.178101,167.403259 
	C119.289291,165.624146 120.712814,163.820145 122.466743,161.976044 
	C121.361580,163.750092 119.926010,165.564240 118.178101,167.403259 
z"/>
<path fill="#EDEDED" opacity="1.000000" stroke="none" 
	d="
M70.833405,178.595657 
	C70.083298,180.070114 69.022560,181.509537 67.647018,182.987686 
	C68.395721,181.537811 69.459244,180.049225 70.833405,178.595657 
z"/>
<path fill="#EDEDED" opacity="1.000000" stroke="none" 
	d="
M105.169037,181.369537 
	C105.954529,179.927933 107.047577,178.470093 108.464645,176.972961 
	C107.684639,178.406876 106.580620,179.880096 105.169037,181.369537 
z"/>
<path fill="#EDEDED" opacity="1.000000" stroke="none" 
	d="
M176.187347,104.463882 
	C176.959290,102.987282 178.046234,101.499954 179.459808,99.972908 
	C178.691742,101.439842 177.597046,102.946495 176.187347,104.463882 
z"/>
<path fill="#EDEDED" opacity="1.000000" stroke="none" 
	d="
M76.660538,162.327484 
	C75.519440,162.834045 74.008163,163.232819 72.269577,163.378876 
	C73.458290,162.823990 74.874321,162.521851 76.660538,162.327484 
z"/>
<path fill="#EDEDED" opacity="1.000000" stroke="none" 
	d="
M118.875710,133.885193 
	C118.085579,134.333450 117.261787,134.391022 116.437988,134.448593 
	C116.999359,133.637543 117.560722,132.826492 118.443291,131.971710 
	C118.790352,132.450150 118.816200,132.972336 118.875710,133.885193 
z"/>
<path fill="#EDEDED" opacity="1.000000" stroke="none" 
	d="
M188.178406,91.463051 
	C188.629120,90.314621 189.389893,89.163422 190.469315,87.972893 
	C190.021469,89.109138 189.254959,90.284714 188.178406,91.463051 
z"/>
<path fill="#EDEDED" opacity="1.000000" stroke="none" 
	d="
M154.828308,80.560295 
	C154.374741,81.714165 153.611771,82.852226 152.532318,84.028809 
	C152.983521,82.893051 153.751236,81.718765 154.828308,80.560295 
z"/>
<path fill="#EDEDED" opacity="1.000000" stroke="none" 
	d="
M190.830032,118.565933 
	C190.375443,119.720825 189.611923,120.856018 188.532318,122.029381 
	C188.984543,120.893784 189.752823,119.720009 190.830032,118.565933 
z"/>
<path fill="#EDEDED" opacity="1.000000" stroke="none" 
	d="
M227.777008,78.317307 
	C227.352417,79.557526 226.604965,80.768806 225.528839,82.021683 
	C225.951477,80.804985 226.702805,79.546677 227.777008,78.317307 
z"/>
<path fill="#EDEDED" opacity="1.000000" stroke="none" 
	d="
M166.176773,115.438377 
	C166.630966,114.324715 167.388077,113.166832 168.464996,111.970901 
	C168.016418,113.086617 167.248062,114.240387 166.176773,115.438377 
z"/>
<path fill="#EDEDED" opacity="1.000000" stroke="none" 
	d="
M201.827576,106.556984 
	C201.374542,107.710442 200.611984,108.850159 199.532684,110.028625 
	C199.983292,108.892654 200.750671,107.717949 201.827576,106.556984 
z"/>
<path fill="#EDEDED" opacity="1.000000" stroke="none" 
	d="
M133.170441,151.394348 
	C133.182770,150.345062 133.498856,149.259354 133.880249,147.896973 
	C133.788422,148.866165 133.631302,150.112061 133.170441,151.394348 
z"/>
<path fill="#EDEDED" opacity="1.000000" stroke="none" 
	d="
M129.859467,122.061127 
	C129.180618,122.635239 128.508667,122.843910 127.836708,123.052589 
	C127.705482,122.827995 127.574257,122.603409 127.443039,122.378815 
	C128.057953,121.912933 128.672867,121.447044 129.595032,120.973358 
	C129.890289,121.208946 129.878311,121.452324 129.859467,122.061127 
z"/>
<path fill="#EDEDED" opacity="1.000000" stroke="none" 
	d="
M139.152679,104.939766 
	C139.808975,104.353897 140.471405,104.133308 141.133820,103.912712 
	C141.273758,104.118423 141.413696,104.324127 141.553635,104.529839 
	C140.998276,105.020691 140.442917,105.511551 139.590881,106.012726 
	C139.249084,105.783722 139.203949,105.544388 139.152679,104.939766 
z"/>
<path fill="#EDEDED" opacity="1.000000" stroke="none" 
	d="
M232.703766,74.103073 
	C232.383331,74.846931 231.750549,75.476997 230.814453,76.119614 
	C231.137894,75.417877 231.764664,74.703583 232.703766,74.103073 
z"/>
<path fill="#EDEDED" opacity="1.000000" stroke="none" 
	d="
M71.667328,102.003738 
	C71.987251,102.558426 72.020256,103.224915 72.044037,104.224991 
	C71.493927,104.410530 70.953033,104.262505 70.412140,104.114471 
	C70.734894,103.448158 71.057655,102.781845 71.667328,102.003738 
z"/>
<path fill="#EDEDED" opacity="1.000000" stroke="none" 
	d="
M7.164151,171.155975 
	C7.792459,171.235519 8.328022,171.574814 8.948700,172.235779 
	C8.379680,172.176880 7.725542,171.796310 7.164151,171.155975 
z"/>
<path fill="#C3C3C3" opacity="1.000000" stroke="none" 
	d="
M173.889771,74.859474 
	C173.479019,75.312393 172.991165,75.455772 172.503296,75.599152 
	C172.754898,75.019569 173.006500,74.439987 173.559357,73.887054 
	C173.844635,74.125771 173.828644,74.337845 173.889771,74.859474 
z"/>
<path fill="#EDEDED" opacity="1.000000" stroke="none" 
	d="
M105.794067,146.936951 
	C105.408432,147.337936 104.895782,147.406372 104.383133,147.474808 
	C104.609177,146.984283 104.835213,146.493759 105.332870,145.949219 
	C105.625359,146.131592 105.646210,146.367981 105.794067,146.936951 
z"/>
<path fill="#EDEDED" opacity="1.000000" stroke="none" 
	d="
M178.244873,142.623169 
	C178.522995,142.138840 179.078964,141.760986 179.782928,141.584137 
	C179.461502,142.099991 178.992111,142.414825 178.244873,142.623169 
z"/>
<path fill="#EDEDED" opacity="1.000000" stroke="none" 
	d="
M183.241241,139.723480 
	C183.421783,139.139175 183.933502,138.594223 184.752899,138.036682 
	C184.564514,138.603699 184.068451,139.183258 183.241241,139.723480 
z"/>
<path fill="#EDEDED" opacity="1.000000" stroke="none" 
	d="
M215.703308,92.097809 
	C215.610001,92.652382 215.221680,93.309120 214.525604,94.016724 
	C214.614655,93.445045 215.011490,92.822510 215.703308,92.097809 
z"/>
<path fill="#EDEDED" opacity="1.000000" stroke="none" 
	d="
M186.351898,136.997406 
	C186.400589,136.376816 186.782349,135.705994 187.475021,134.984100 
	C187.418945,135.604401 187.051956,136.275803 186.351898,136.997406 
z"/>
<path fill="#EDEDED" opacity="1.000000" stroke="none" 
	d="
M221.352386,100.007050 
	C221.402344,99.385559 221.780182,98.709816 222.469788,97.982941 
	C222.414444,98.605469 222.047363,99.279129 221.352386,100.007050 
z"/>
<path fill="#EDEDED" opacity="1.000000" stroke="none" 
	d="
M203.360992,119.016525 
	C203.411179,118.396034 203.792252,117.717476 204.487366,116.988007 
	C204.431580,117.610878 204.061722,118.284676 203.360992,119.016525 
z"/>
<path fill="#EDEDED" opacity="1.000000" stroke="none" 
	d="
M94.240936,184.504517 
	C93.943253,183.929703 93.922661,183.335388 93.923431,182.444275 
	C94.135872,182.926666 94.326958,183.705841 94.240936,184.504517 
z"/>
<path fill="#C3C3C3" opacity="1.000000" stroke="none" 
	d="
M174.241943,73.891609 
	C174.188583,73.279274 174.447586,72.673630 175.057312,72.166183 
	C175.123474,72.809029 174.838913,73.353668 174.241943,73.891609 
z"/>
<path fill="#EDEDED" opacity="1.000000" stroke="none" 
	d="
M196.676605,36.101540 
	C196.557129,36.484280 196.117264,36.754734 195.410141,37.036888 
	C195.547333,36.695473 195.951782,36.342361 196.676605,36.101540 
z"/>
<path fill="#EDEDED" opacity="1.000000" stroke="none" 
	d="
M161.209686,117.194763 
	C161.504013,116.985016 161.701416,117.098808 161.920135,117.445007 
	C161.705795,117.553978 161.429565,117.500938 161.209686,117.194763 
z"/>
<path fill="#FEFEFE" opacity="1.000000" stroke="none" 
	d="
M154.722809,98.759567 
	C160.134293,92.704727 165.278275,86.892929 170.490692,81.143181 
	C170.995621,80.586212 171.920410,80.118187 172.656815,80.108597 
	C178.896439,80.027344 185.137589,80.062187 192.144974,80.062187 
	C191.056610,82.054909 190.602936,83.493401 189.673965,84.487907 
	C183.582916,91.008530 177.342697,97.389839 171.254440,103.912994 
	C169.147842,106.170082 167.347580,108.711731 165.385208,111.105209 
	C163.485947,113.421738 161.617889,113.381767 159.605240,111.140800 
	C157.944763,109.291954 156.220764,107.465622 154.318420,105.876518 
	C151.379776,103.421776 151.642929,101.241959 154.722809,98.759567 
z"/>
<path fill="#FEFEFE" opacity="1.000000" stroke="none" 
	d="
M93.996712,177.004944 
	C93.328781,175.518250 93.061699,173.529404 91.928726,172.623535 
	C87.674271,169.221909 89.386215,166.783600 92.522621,163.864685 
	C95.537849,161.058578 98.153770,157.812958 100.854179,154.682007 
	C103.472672,151.646027 106.398697,149.666138 110.717453,149.937744 
	C115.683495,150.250031 120.679482,150.079712 125.661934,150.154404 
	C125.936325,150.158508 126.205864,150.486572 127.367836,151.244415 
	C124.922302,153.990875 122.592697,156.687164 120.176552,159.303543 
	C115.485451,164.383438 110.542274,169.247055 106.093033,174.528397 
	C102.761574,178.482895 99.394257,180.085297 94.371574,177.010315 
	C93.990120,177.006973 94.000000,177.000000 93.996712,177.004944 
z"/>
<path fill="#FEFEFE" opacity="1.000000" stroke="none" 
	d="
M123.218643,140.000000 
	C121.037010,140.000000 119.319328,140.000000 117.601646,140.000000 
	C117.573128,139.249252 117.544617,138.498520 117.516098,137.747772 
	C124.665451,136.175888 132.005295,137.367111 139.766403,136.981415 
	C137.424240,140.473709 139.666229,139.940323 123.218643,140.000000 
z"/>
<path fill="#EDEDED" opacity="1.000000" stroke="none" 
	d="
M102.995117,134.421753 
	C104.421982,133.042511 105.848854,131.663269 107.575569,130.193939 
	C110.469200,134.723969 106.293633,135.901947 103.622101,137.481201 
	C103.245117,136.133621 103.120117,135.277695 102.995117,134.421753 
z"/>
<path fill="#010101" opacity="1.000000" stroke="none" 
	d="
M110.403656,128.762115 
	C110.598175,127.125717 110.813637,125.427826 111.748558,124.359665 
	C114.325508,121.415489 117.203552,118.734856 120.611534,116.472092 
	C120.573631,118.350349 119.886688,119.706505 119.199753,121.062653 
	C116.384125,123.704430 113.568497,126.346207 110.403656,128.762115 
z"/>
<path fill="#010101" opacity="1.000000" stroke="none" 
	d="
M102.655930,134.546051 
	C103.120117,135.277695 103.245117,136.133621 103.287277,137.522980 
	C100.415909,140.350204 97.627380,142.643982 94.628174,144.478806 
	C97.050583,140.903351 99.683655,137.786850 102.655930,134.546051 
z"/>
<path fill="#FEFEFE" opacity="1.000000" stroke="none" 
	d="
M80.319504,179.946701 
	C82.700951,175.985748 83.819489,176.046158 86.173569,180.841248 
	C83.928932,180.631897 82.190788,180.469772 80.319504,179.946701 
z"/>
<path fill="#EDEDED" opacity="1.000000" stroke="none" 
	d="
M119.532394,121.020950 
	C119.886688,119.706505 120.573631,118.350349 121.069962,116.199211 
	C121.434845,115.035698 121.990341,114.667168 122.763298,114.347343 
	C125.243019,118.152679 122.168327,119.383415 119.532394,121.020950 
z"/>
<path fill="#EDEDED" opacity="1.000000" stroke="none" 
	d="
M87.994980,150.420807 
	C88.851509,149.599014 89.708038,148.777206 90.833504,147.816940 
	C93.774185,150.025604 93.626625,150.444870 88.625435,153.479126 
	C88.239471,152.134293 88.117226,151.277542 87.994980,150.420807 
z"/>
<path fill="#010101" opacity="1.000000" stroke="none" 
	d="
M87.650650,150.553864 
	C88.117226,151.277542 88.239471,152.134293 88.283386,153.523804 
	C86.381813,155.702820 84.558563,157.349060 82.391769,158.769470 
	C83.800911,155.924713 85.553619,153.305817 87.650650,150.553864 
z"/>
<path fill="#EDEDED" opacity="1.000000" stroke="none" 
	d="
M84.467850,169.452499 
	C84.523193,169.419250 84.412506,169.485748 84.467850,169.452499 
z"/>
<path fill="#010101" opacity="1.000000" stroke="none" 
	d="
M72.977097,156.492737 
	C72.393234,156.877029 71.704155,156.739456 70.714233,156.302673 
	C71.232880,155.992615 72.052391,155.981735 72.977097,156.492737 
z"/>
</svg>